<svg xmlns="http://www.w3.org/2000/svg" width="32.833" height="17.139" viewBox="0 0 32.833 17.139">
  <g id="down-arrow" transform="translate(0 -117.272)">
    <path id="패스_482" data-name="패스 482" d="M31.624,117.49l-15.2,15.2-15.2-15.2A.714.714,0,0,0,.221,118.5l15.7,15.7a.714.714,0,0,0,1.009,0l15.7-15.7a.714.714,0,0,0-.992-1.027l-.018.018Z" transform="translate(-0.02)" fill="#132e6a"/>
    <path id="패스_483" data-name="패스 483" d="M16.407,134.412a.714.714,0,0,1-.505-.208L.2,118.5a.714.714,0,0,1,1.009-1.009l15.2,15.2,15.2-15.2a.714.714,0,0,1,1.027.992l-.018.018-15.7,15.7A.714.714,0,0,1,16.407,134.412Z" transform="translate(0 -0.001)" fill="#132e6a"/>
  </g>
</svg>
