<svg xmlns="http://www.w3.org/2000/svg" width="16" height="23.098" viewBox="0 0 16 23.098">
  <path id="music" d="M79.282,7.537a8.275,8.275,0,0,0-3.2-3.151,9.038,9.038,0,0,1-2.363-2l-.108-.146a3.934,3.934,0,0,1-.824-1.48A.9.9,0,0,0,71.847,0a.886.886,0,0,0-.826.885V16.719a5.14,5.14,0,0,0-2.665-.729c-2.449,0-4.442,1.594-4.442,3.554S65.907,23.1,68.355,23.1,72.8,21.5,72.8,19.544V4.051a12.843,12.843,0,0,0,2.3,1.812,6.829,6.829,0,0,1,2.591,2.454,4.171,4.171,0,0,1,.444,2.04,7.252,7.252,0,0,1-1.557,4.158.888.888,0,0,0,1.333,1.173,9.068,9.068,0,0,0,2-5.221A5.9,5.9,0,0,0,79.282,7.537Z" transform="translate(-63.913 0)" fill="#132e6a"/>
</svg>
