<?xml version="1.0"?>
<svg xmlns="http://www.w3.org/2000/svg" height="512px" viewBox="-45 0 327 327" width="512px" class=""><g><link xmlns="" type="text/css" rel="stylesheet" id="dark-mode-general-link" class="active-path" style=""/><link xmlns="" type="text/css" rel="stylesheet" id="dark-mode-custom-link" class="active-path"/><style xmlns="" type="text/css" id="dark-mode-custom-style" class="active-path"/><path d="m158 0h71c4.417969 0 8 3.582031 8 8v311c0 4.417969-3.582031 8-8 8h-71c-4.417969 0-8-3.582031-8-8v-311c0-4.417969 3.582031-8 8-8zm0 0" data-original="#000000" class="active-path" fill="#04458F"/><path d="m8 0h71c4.417969 0 8 3.582031 8 8v311c0 4.417969-3.582031 8-8 8h-71c-4.417969 0-8-3.582031-8-8v-311c0-4.417969 3.582031-8 8-8zm0 0" data-original="#000000" class="active-path" fill="#04458F"/></g> </svg>
