<svg xmlns="http://www.w3.org/2000/svg" width="832.839" height="633.621" viewBox="0 0 832.839 633.621">
  <g id="undraw_location_search_bqps" transform="translate(0 0)" opacity="0.231">
    <rect id="사각형_240" data-name="사각형 240" width="574.124" height="2.047" transform="translate(258.715 529.125)" fill="#3f3d56"/>
    <rect id="사각형_241" data-name="사각형 241" width="574.124" height="2.047" transform="translate(61.5 631.574)" fill="#3f3d56"/>
    <path id="패스_556" data-name="패스 556" d="M705.549,472.255C784.256,559.3,556.1,684.739,371.736,684.739S59.829,587.544,37.924,472.255C-15.188,192.719,490.451,15.048,371.736,259.772,198.7,616.487,643.565,403.708,705.549,472.255Z" transform="translate(-34 -52.313)" fill="#3f3d56"/>
    <circle id="타원_96" data-name="타원 96" cx="6.705" cy="6.705" r="6.705" transform="translate(237.533 135.633)" fill="#d0cde1"/>
    <circle id="타원_97" data-name="타원 97" cx="6.705" cy="6.705" r="6.705" transform="translate(146.641 537.198)" fill="#d0cde1"/>
    <circle id="타원_98" data-name="타원 98" cx="2.98" cy="2.98" r="2.98" transform="translate(253.179 237.7)" fill="#d0cde1"/>
    <circle id="타원_99" data-name="타원 99" cx="2.98" cy="2.98" r="2.98" transform="translate(96.725 392.664)" fill="#d0cde1"/>
    <circle id="타원_100" data-name="타원 100" cx="2.98" cy="2.98" r="2.98" transform="translate(488.605 504.417)" fill="#d0cde1"/>
    <circle id="타원_101" data-name="타원 101" cx="2.98" cy="2.98" r="2.98" transform="translate(87.04 240.68)" fill="#d0cde1"/>
    <path id="패스_557" data-name="패스 557" d="M367.087,223.311H365.6V221.82h-.745v1.491h-1.49v.745h1.49v1.491h.745v-1.491h1.49Z" transform="translate(-96.028 -58.622)" fill="#d0cde1"/>
    <path id="패스_558" data-name="패스 558" d="M212.154,256.728h-1.49v-1.491h-.745v1.491h-1.49v.745h1.49v1.49h.745v-1.49h1.49Z" transform="translate(-55.083 -67.453)" fill="#d0cde1"/>
    <path id="패스_559" data-name="패스 559" d="M110.891,447.1H109.4v-1.491h-.745V447.1h-1.49v.745h1.49v1.491h.745v-1.491h1.49Z" transform="translate(-28.321 -117.765)" fill="#d0cde1"/>
    <circle id="타원_102" data-name="타원 102" cx="2.98" cy="2.98" r="2.98" transform="translate(288.94 568.489)" fill="#d0cde1"/>
    <circle id="타원_103" data-name="타원 103" cx="2.98" cy="2.98" r="2.98" transform="translate(279.254 416.505)" fill="#d0cde1"/>
    <circle id="타원_104" data-name="타원 104" cx="2.98" cy="2.98" r="2.98" transform="translate(631.648 471.636)" fill="#d0cde1"/>
    <path id="패스_560" data-name="패스 560" d="M372.15,686.084h-1.49v-1.49h-.745v1.49h-1.491v.745h1.491v1.49h.745v-1.49h1.49Z" transform="translate(-97.366 -180.922)" fill="#d0cde1"/>
    <path id="패스_561" data-name="패스 561" d="M568.6,757.981h-1.49v-1.49h-.745v1.49h-1.49v.745h1.49v1.49h.745v-1.49h1.49Z" transform="translate(-149.283 -199.923)" fill="#d0cde1"/>
    <path id="패스_562" data-name="패스 562" d="M72.411,577.732h-1.49v-1.49h-.745v1.49h-1.49v.745h1.49v1.49h.745v-1.49h1.49Z" transform="translate(-18.152 -152.287)" fill="#d0cde1"/>
    <path id="패스_563" data-name="패스 563" d="M353.923,431.913h-1.49v-1.49h-.745v1.49H350.2v.745h1.49v1.49h.745v-1.49h1.49Z" transform="translate(-92.549 -113.751)" fill="#d0cde1"/>
    <path id="패스_564" data-name="패스 564" d="M229.369,312.422h-1.49v-1.49h-.745v1.49h-1.49v.745h1.49v1.49h.745v-1.49h1.49Z" transform="translate(-59.632 -82.172)" fill="#d0cde1"/>
    <path id="패스_565" data-name="패스 565" d="M312.405,511.911h-1.49v-1.49h-.745v1.49h-1.49v.745h1.49v1.49h.745v-1.49h1.49Z" transform="translate(-81.577 -134.892)" fill="#d0cde1"/>
    <path id="패스_566" data-name="패스 566" d="M190.889,637.478H189.4v-1.49h-.745v1.49h-1.49v.745h1.49v1.49h.745v-1.49h1.49Z" transform="translate(-49.463 -168.076)" fill="#d0cde1"/>
    <ellipse id="타원_105" data-name="타원 105" cx="43.956" cy="6.705" rx="43.956" ry="6.705" transform="translate(128.016 330.083)" fill="#6c63ff"/>
    <path id="패스_567" data-name="패스 567" d="M257.764,474.839c-17.968,0-44.7-1.984-44.7-7.45s26.733-7.45,44.7-7.45,44.7,1.984,44.7,7.45S275.732,474.839,257.764,474.839Zm0-13.41a216.345,216.345,0,0,0-30.969,1.956c-9.683,1.477-12.242,3.265-12.242,4s2.558,2.528,12.242,4a216.337,216.337,0,0,0,30.969,1.956,216.336,216.336,0,0,0,30.969-1.956c9.683-1.477,12.242-3.265,12.242-4s-2.558-2.527-12.242-4A216.345,216.345,0,0,0,257.764,461.429Z" transform="translate(-81.322 -135.816)" fill="#d0cde1"/>
    <path id="패스_568" data-name="패스 568" d="M263.651,322.22c-15.636,0-28.311,3.735-28.311,19.371s12.675,78.227,28.311,78.227,28.311-62.591,28.311-78.227S279.287,322.22,263.651,322.22Zm0,40.231a11.92,11.92,0,1,1,11.92-11.92,11.92,11.92,0,0,1-11.92,11.92Z" transform="translate(-87.21 -99.42)" fill="#6c63ff"/>
    <path id="패스_569" data-name="패스 569" d="M788.781,436.009C726.8,367.461,281.928,580.24,454.968,223.526,532.1,64.52,345.662,83.833,220.159,193.542c121.532-83.45,268.23-85.856,198.3,58.3C245.422,608.551,690.29,395.772,752.275,464.32c28.842,31.9,16.475,68.947-19.84,103.093C794.853,526.5,825.846,477,788.781,436.009Z" transform="translate(-83.197 -42.734)" fill="#d0cde1"/>
    <path id="패스_570" data-name="패스 570" d="M483.52,852.694l-.958-.359c-.211-.079-21.173-8.111-30.993-26.322s-5.012-40.139-4.962-40.358l.226-1,.958.359c.211.079,21.173,8.111,30.993,26.322s5.012,40.139,4.962,40.358Zm-30.379-27.529c8.3,15.4,24.867,23.29,29.065,25.092.8-4.5,3.3-22.689-4.994-38.072s-24.866-23.286-29.065-25.092c-.8,4.5-3.3,22.69,4.994,38.072Z" transform="translate(-142.72 -221.631)" fill="#d0cde1"/>
    <path id="패스_571" data-name="패스 571" d="M449.814,830.73c17.647,10.617,24.444,31.706,24.444,31.706s-21.816,3.875-39.463-6.742-24.444-31.706-24.444-31.706S432.167,820.113,449.814,830.73Z" transform="translate(-133.461 -231.843)" fill="#6c63ff"/>
    <path id="패스_572" data-name="패스 572" d="M790.63,309.375S750.194,349,767.177,353.855s36.393-36.393,36.393-36.393Z" transform="translate(-226.66 -96.025)" fill="#ffb9b9"/>
    <path id="패스_573" data-name="패스 573" d="M819.77,471.359,814.917,494l36.393,1.618-5.661-24.262Z" transform="translate(-215.363 -124.569)" fill="#ffb9b9"/>
    <path id="패스_574" data-name="패스 574" d="M975.861,661.526l-4.852,22.645,36.392,1.617-5.661-24.262Z" transform="translate(-256.615 -174.826)" fill="#ffb9b9"/>
    <path id="패스_575" data-name="패스 575" d="M895.356,285.191l3.235,12.94s-89.769-17.792-84.917,27.5,25.88,88.961,25.88,88.961-1.618,14.557,1.618,16.983,0,10.513,0,10.513,29.923,4.044,30.732-3.235a50.729,50.729,0,0,0-.809-14.557s1.618,0,0-8.087-8.151-73.309-13-82.206c0,0,42.927,32.873,65.571,28.829,0,0-3.235,32.349,9.7,75.212s12.94,47.715,12.94,47.715,15.366,81.682,11.322,91.387l-.809,4.044h29.923s-2.426-42.863,0-48.524,2.426-54.185-11.322-78.447c-9.736-17.181-7.923-67-2.6-86.69,4.472-16.536,5.6-29.263,2.98-46.191-2.8-18.1-11.175-27.566-21.41-36.144Z" transform="translate(-239.999 -89.634)" fill="#2f2e41"/>
    <circle id="타원_106" data-name="타원 106" cx="29.114" cy="29.114" r="29.114" transform="translate(650.1 15.614)" fill="#ffb9b9"/>
    <path id="패스_576" data-name="패스 576" d="M946.749,103.857s8.9,25.879,8.087,30.732,25.879-9.7,25.879-9.7S970.2,99,973.437,91.726Z" transform="translate(-275.218 -38.506)" fill="#ffb9b9"/>
    <path id="패스_577" data-name="패스 577" d="M968.529,124.7l-28.306,11.322,1.617,9.7s-2.426,3.235-1.617,4.852-10.513,8.087-8.9,10.513-9.7,12.131-8.9,14.557-25.88,16.983-11.322,45.289c0,0,7.547,9.812,6.6,21.415q-.05.612-.132,1.23c-1.617,12.131,61.464-1.617,61.464-1.617V228.221s5.661-2.426,4.852-12.94-5.661-5.661,0-11.322,5.661-4.852,4.852-9.7c-.323-1.938-.388-8.905-.35-16.576a73.589,73.589,0,0,0-15.016-44.888h0Z" transform="translate(-264.649 -47.221)" fill="#d0cde1"/>
    <path id="패스_578" data-name="패스 578" d="M923.353,152.054l-52.568,54.994L793.956,267.7l16.983,13.749L952.467,186.83S964.6,135.071,923.353,152.054Z" transform="translate(-234.838 -53.545)" fill="#d0cde1"/>
    <path id="패스_579" data-name="패스 579" d="M836.977,504.676s-5.661-9.7-9.7-6.47L798.967,520.85s-50.142,14.557-1.618,25.879c0,0,26.688,4.044,32.349,0s14.557-3.235,16.983-1.618,33.158-.809,33.158-7.279-16.95-34.746-16.95-34.746S853.152,514.38,836.977,504.676Z" transform="translate(-230.144 -145.755)" fill="#2f2e41"/>
    <path id="패스_580" data-name="패스 580" d="M993.068,694.843s-5.661-9.7-9.7-6.47l-28.306,22.645s-50.141,14.557-1.617,25.879c0,0,26.688,4.044,32.349,0s14.557-3.235,16.983-1.618,33.158-.809,33.158-7.278-16.949-34.746-16.949-34.746S1009.243,704.548,993.068,694.843Z" transform="translate(-271.396 -196.011)" fill="#2f2e41"/>
    <path id="패스_581" data-name="패스 581" d="M909.768,52.572S914.69,9.3,956.793,21.585c0,0,29.785-6.058,40.3,31.142l10.678,39-4.888-2.54-2.16,4.973-7.8,2.136L989.445,89.7l-1.467,8.116L934.109,108.71S952.327,87.9,952.2,57.409L946.832,63.3Z" transform="translate(-265.445 -19.389)" fill="#2f2e41"/>
    <ellipse id="타원_107" data-name="타원 107" cx="78.972" cy="10.43" rx="78.972" ry="10.43" transform="translate(370.892 395.644)" fill="#2f2e41"/>
    <path id="패스_582" data-name="패스 582" d="M673.3,385.383h-.935V359.772a14.823,14.823,0,0,0-14.823-14.823h-54.26a14.823,14.823,0,0,0-14.823,14.823v140.5A14.823,14.823,0,0,0,603.277,515.1h54.26a14.823,14.823,0,0,0,14.823-14.823V403.614h.935Z" transform="translate(-180.529 -105.427)" fill="#3f3d56"/>
    <path id="패스_583" data-name="패스 583" d="M659.128,350.668h-7.083a5.259,5.259,0,0,1-4.869,7.245H616.091a5.259,5.259,0,0,1-4.869-7.245h-6.615a11.07,11.07,0,0,0-11.07,11.07v140.3a11.07,11.07,0,0,0,11.07,11.07h54.521a11.07,11.07,0,0,0,11.07-11.07v-140.3a11.07,11.07,0,0,0-11.07-11.07Z" transform="translate(-181.872 -106.938)" fill="#6c63ff"/>
    <circle id="타원_108" data-name="타원 108" cx="15.645" cy="15.645" r="15.645" transform="translate(422.298 277.931)" fill="#d0cde1"/>
    <path id="패스_584" data-name="패스 584" d="M666.442,432.961l-18.924-18.924a17.121,17.121,0,1,0-4.925,4.925l18.924,18.924Zm-41.86-19.7a12.188,12.188,0,1,1,17.236,0A12.188,12.188,0,0,1,624.582,413.262Z" transform="translate(-187.83 -116.679)" fill="#3f3d56"/>
    <rect id="사각형_242" data-name="사각형 242" width="61.092" height="7.45" transform="translate(419.318 334.553)" fill="#3f3d56"/>
  </g>
</svg>
