<svg xmlns="http://www.w3.org/2000/svg" xmlns:xlink="http://www.w3.org/1999/xlink" width="843.48" height="620.3" viewBox="0 0 843.48 620.3">
  <defs>
    <linearGradient id="linear-gradient" x1="0.5" y1="1" x2="0.5" gradientUnits="objectBoundingBox">
      <stop offset="0" stop-color="gray" stop-opacity="0.251"/>
      <stop offset="0.54" stop-color="gray" stop-opacity="0.122"/>
      <stop offset="1" stop-color="gray" stop-opacity="0.102"/>
    </linearGradient>
  </defs>
  <g id="undraw_music_r1se" transform="translate(0.003 -0.001)">
    <ellipse id="타원_80" data-name="타원 80" cx="132.263" cy="24.635" rx="132.263" ry="24.635" transform="translate(269.562 480.897)" fill="#3658aa"/>
    <path id="패스_365" data-name="패스 365" d="M58.46,814.785c30,10.086,66.6,3.952,100.632,4.661,4.662.1,9.59.389,13.329,2.129s5.577,4.578,8.141,6.989c9.537,8.995,29.083,11.864,46.158,10.338s32.738-6.577,48.828-10.429c27.87-6.653,59.723-9.674,87.2-2.426,2.518.664,5.173,1.434,7.881,1.167,6.027-.6,7.82-5.417,12.032-8.179,7.629-4.974,24.132-3.624,27.466-10.178,1.961-3.815-2.548-7.782-7.454-10.407-18.784-10.04-45.654-11.7-70.236-10.147s-48.76,5.821-73.464,5.837c-30.731.038-60.486-6.531-91-9.216-21.111-1.862-44.159-1.633-63.957,3.815C82.577,794.711,77.854,808.025,58.46,814.785Z" transform="translate(-49.885 -218.988)" fill="#7296e2" opacity="0.1"/>
    <path id="패스_366" data-name="패스 366" d="M67.53,473.44c13.245,56.61,41.283,105.545,85.594,129.265C245.211,652,452.891,626.57,607.891,597.364a354.912,354.912,0,0,0,201.828-115.38Z" transform="translate(-52.035 -145.398)" fill="#1b55e6" opacity="0.1"/>
    <path id="패스_367" data-name="패스 367" d="M886.989,105.047H801.944a7.347,7.347,0,1,1,0-14.694h14.694a7.355,7.355,0,0,1,0-14.7h-10.5a7.355,7.355,0,0,1,0-14.7h44.388A117.127,117.127,0,0,0,815.905,51.4c-121.033-15.541-164.246-5.241-179.5,5.318-18.807,13.046-39.787,22.644-62.2,27.268-74.707,15.4-214.325,33.943-340.913-5.936C170.373,58.218,123.62,91.726,95.59,147.7H901.752c-1.053-16.266-4.2-31.281-9.987-44.434A7.309,7.309,0,0,1,886.989,105.047Z" transform="translate(-58.687 -43.47)" fill="#1b55e6" opacity="0.1"/>
    <path id="패스_368" data-name="패스 368" d="M57.5,318.56a374.412,374.412,0,0,0,3.3,98.755L807.48,444.621A350.852,350.852,0,0,0,859.36,365.5Zm295.319,70.465H338.126a7.347,7.347,0,1,1,0,14.694H253.081a7.347,7.347,0,1,1,0-14.694h14.694a7.355,7.355,0,0,1,0-14.7h-10.5a7.355,7.355,0,0,1,0-14.7h85.045a7.355,7.355,0,0,1,0,14.7h10.5a7.355,7.355,0,1,1,0,14.7Z" transform="translate(-49.224 -108.682)" fill="#1b55e6" opacity="0.1"/>
    <path id="패스_369" data-name="패스 369" d="M892.928,180.75,77.734,200.579c-9.918,25.5-16.487,54.314-19.524,84.183H878.639A348.724,348.724,0,0,0,890.487,231.1,254.856,254.856,0,0,0,892.928,180.75ZM223.722,245.73H209.028a7.347,7.347,0,1,1,0,14.694H123.983a7.347,7.347,0,1,1,0-14.694h14.694a7.355,7.355,0,0,1,0-14.7h-10.5a7.355,7.355,0,0,1,0-14.7h85.045a7.355,7.355,0,0,1,0,14.7h10.5a7.355,7.355,0,1,1,0,14.7Z" transform="translate(-49.826 -76.013)" fill="#1b55e6" opacity="0.1"/>
    <g id="그룹_106" data-name="그룹 106" transform="translate(477.291 282.758)" opacity="0.1">
      <path id="패스_370" data-name="패스 370" d="M680.11,591.324s21.515-53.009,61.714-72.693a86.677,86.677,0,0,0,39.353-38.208,145.85,145.85,0,0,0,9.865-24.773" transform="translate(-674.544 -423.939)" fill="none" stroke="#535461" stroke-miterlimit="10" stroke-width="2"/>
      <path id="패스_371" data-name="패스 371" d="M850.534,433.246c-4.188,5.264-25.864,12.97-25.864,12.97s2.609-22.85,6.8-28.114a12.207,12.207,0,0,1,19.073,15.16Z" transform="translate(-708.814 -414.085)" fill="#6c63ff"/>
      <path id="패스_372" data-name="패스 372" d="M839.885,486.555c-6.378,2.144-28.755-3.189-28.755-3.189s14.61-17.761,20.988-19.905a12.207,12.207,0,0,1,7.767,23.094Z" transform="translate(-705.604 -425.691)" fill="#6c63ff"/>
      <path id="패스_373" data-name="패스 373" d="M788.789,551.008c-6.592-1.373-23.208-17.265-23.208-17.265s21.576-7.958,28.16-6.592a12.207,12.207,0,1,1-4.952,23.857Z" transform="translate(-694.806 -440.851)" fill="#6c63ff"/>
      <path id="패스_374" data-name="패스 374" d="M736.987,590.774c-6.721-.236-25.787-13.092-25.787-13.092s19.92-11.49,26.642-11.253a12.207,12.207,0,1,1-.854,24.345Z" transform="translate(-681.914 -450.198)" fill="#6c63ff"/>
      <path id="패스_375" data-name="패스 375" d="M783.822,466.119c.862,6.676,15.434,24.468,15.434,24.468s9.59-20.9,8.728-27.58a12.207,12.207,0,0,0-24.162,3.113Z" transform="translate(-699.124 -423.345)" fill="#6c63ff"/>
      <path id="패스_376" data-name="패스 376" d="M724.319,511.935c2.815,6.1,22.041,18.73,22.041,18.73s2.9-22.812.084-28.923a12.207,12.207,0,1,0-22.125,10.193Z" transform="translate(-684.673 -433.005)" fill="#6c63ff"/>
      <path id="패스_377" data-name="패스 377" d="M673.49,566.464c1.755,6.5,18.539,22.186,18.539,22.186s6.706-22,4.967-28.5a12.207,12.207,0,1,0-23.529,6.31Z" transform="translate(-672.815 -446.381)" fill="#6c63ff"/>
      <path id="패스_378" data-name="패스 378" d="M850.534,433.246c-4.188,5.264-25.864,12.97-25.864,12.97s2.609-22.85,6.8-28.114a12.207,12.207,0,0,1,19.073,15.16Z" transform="translate(-708.814 -414.085)" opacity="0.25"/>
      <path id="패스_379" data-name="패스 379" d="M839.885,486.555c-6.378,2.144-28.755-3.189-28.755-3.189s14.61-17.761,20.988-19.905a12.207,12.207,0,0,1,7.767,23.094Z" transform="translate(-705.604 -425.691)" opacity="0.25"/>
      <path id="패스_380" data-name="패스 380" d="M788.789,551.008c-6.592-1.373-23.208-17.265-23.208-17.265s21.576-7.958,28.16-6.592a12.207,12.207,0,1,1-4.952,23.857Z" transform="translate(-694.806 -440.851)" opacity="0.25"/>
      <path id="패스_381" data-name="패스 381" d="M736.987,590.774c-6.721-.236-25.787-13.092-25.787-13.092s19.92-11.49,26.642-11.253a12.207,12.207,0,1,1-.854,24.345Z" transform="translate(-681.914 -450.198)" opacity="0.25"/>
      <path id="패스_382" data-name="패스 382" d="M783.822,466.119c.862,6.676,15.434,24.468,15.434,24.468s9.59-20.9,8.728-27.58a12.207,12.207,0,0,0-24.162,3.113Z" transform="translate(-699.124 -423.345)" opacity="0.25"/>
      <path id="패스_383" data-name="패스 383" d="M724.319,511.935c2.815,6.1,22.041,18.73,22.041,18.73s2.9-22.812.084-28.923a12.207,12.207,0,1,0-22.125,10.193Z" transform="translate(-684.673 -433.005)" opacity="0.25"/>
      <path id="패스_384" data-name="패스 384" d="M673.49,566.464c1.755,6.5,18.539,22.186,18.539,22.186s6.706-22,4.967-28.5a12.207,12.207,0,1,0-23.529,6.31Z" transform="translate(-672.815 -446.381)" opacity="0.25"/>
    </g>
    <g id="그룹_107" data-name="그룹 107" transform="translate(444.641 172.161)" opacity="0.1">
      <path id="패스_385" data-name="패스 385" d="M660.09,480.66s2.716-57.159,34.1-89.043a86.632,86.632,0,0,0,24.452-49.088,145.277,145.277,0,0,0,1.091-26.65" transform="translate(-637.148 -280.208)" fill="none" stroke="#535461" stroke-miterlimit="10" stroke-width="2"/>
      <path id="패스_386" data-name="패스 386" d="M756.676,284.593c-2.2,6.355-20.111,20.79-20.111,20.79s-5.112-22.423-2.907-28.778a12.207,12.207,0,0,1,23.018,7.988Z" transform="translate(-654.457 -269.124)" fill="#6c63ff"/>
      <path id="패스_387" data-name="패스 387" d="M764.245,337.256c-5.34,4.135-28.175,6.531-28.175,6.531s7.889-21.607,13.2-25.742a12.207,12.207,0,1,1,14.976,19.211Z" transform="translate(-655.16 -279.985)" fill="#6c63ff"/>
      <path id="패스_388" data-name="패스 388" d="M735.926,415.158c-6.668.893-27.626-8.591-27.626-8.591s17.723-14.664,24.414-15.556a12.207,12.207,0,0,1,3.235,24.147Z" transform="translate(-648.577 -298.012)" fill="#6c63ff"/>
      <path id="패스_389" data-name="패스 389" d="M700.709,469.871c-6.424,2.007-28.679-3.815-28.679-3.815s14.984-17.448,21.408-19.455a12.207,12.207,0,0,1,7.271,23.254Z" transform="translate(-639.979 -311.113)" fill="#6c63ff"/>
      <path id="패스_390" data-name="패스 390" d="M703.48,338.1c3.052,6.012,22.675,17.967,22.675,17.967s2.113-22.888-.908-28.908A12.207,12.207,0,0,0,703.48,338.1Z" transform="translate(-647.205 -281.454)" fill="#6c63ff"/>
      <path id="패스_391" data-name="패스 391" d="M662.538,401.062c4.677,4.829,27,10.361,27,10.361s-4.829-22.484-9.514-27.321a12.207,12.207,0,1,0-17.487,16.96Z" transform="translate(-636.774 -295.359)" fill="#6c63ff"/>
      <path id="패스_392" data-name="패스 392" d="M632.66,469.342c3.815,5.547,24.872,14.771,24.872,14.771s-.961-22.98-4.761-28.534a12.207,12.207,0,1,0-20.111,13.733Z" transform="translate(-630.02 -311.889)" fill="#6c63ff"/>
    </g>
    <rect id="사각형_169" data-name="사각형 169" width="5.18" height="73.212" transform="translate(281.654 79.567)" fill="#535461"/>
    <rect id="사각형_170" data-name="사각형 170" width="5.18" height="41.412" transform="translate(281.654 177.926)" fill="#535461"/>
    <rect id="사각형_171" data-name="사각형 171" width="232.949" height="505.83" rx="47.1" transform="translate(285.354 7.836)" fill="#535461"/>
    <rect id="사각형_172" data-name="사각형 172" width="232.949" height="460.717" rx="47.1" transform="translate(285.354 31.502)" fill="#7198e2"/>
    <rect id="사각형_173" data-name="사각형 173" width="38.452" height="5.18" rx="2.59" transform="translate(382.965 18.929)" fill="#eaeaf3"/>
    <circle id="타원_81" data-name="타원 81" cx="3.7" cy="3.7" r="3.7" transform="translate(431.03 18.189)" fill="#eaeaf3"/>
    <path id="패스_393" data-name="패스 393" d="M471,561.76V548.027a.4.4,0,0,1,.4-.4h1.526a.389.389,0,0,1,.389.4v5.722l6.348-5.875a1.045,1.045,0,0,1,1.709.8v12.436a1.045,1.045,0,0,1-1.709.8l-6.371-5.844v5.692a.389.389,0,0,1-.389.4h-1.526A.4.4,0,0,1,471,561.76Z" transform="translate(-147.682 -162.985)" fill="#535461"/>
    <path id="패스_394" data-name="패스 394" d="M668.771,548v13.733a.389.389,0,0,1-.389.4h-1.564a.389.389,0,0,1-.389-.4v-5.722l-6.348,5.875a1.038,1.038,0,0,1-1.7-.8V548.675a1.038,1.038,0,0,1,1.7-.8l6.348,5.844v-5.692a.389.389,0,0,1,.389-.4h1.564a.389.389,0,0,1,.389.366Z" transform="translate(-192.102 -162.985)" fill="#535461"/>
    <path id="패스_395" data-name="패스 395" d="M566.639,562.5h-3.113A1.526,1.526,0,0,1,562,560.97V549.526A1.526,1.526,0,0,1,563.526,548h3.105a1.526,1.526,0,0,1,1.526,1.526v11.391a1.526,1.526,0,0,1-1.518,1.579Zm9.842-1.526V549.526A1.526,1.526,0,0,0,574.955,548H571.85a1.526,1.526,0,0,0-1.526,1.526v11.391a1.526,1.526,0,0,0,1.526,1.526h3.105a1.526,1.526,0,0,0,1.541-1.526Z" transform="translate(-169.254 -163.073)" fill="#535461"/>
    <rect id="사각형_174" data-name="사각형 174" width="183.106" height="2.037" transform="translate(308.418 366.448)" fill="#eaeaf3"/>
    <circle id="타원_82" data-name="타원 82" cx="4.829" cy="4.829" r="4.829" transform="translate(360.13 362.634)" fill="#535461"/>
    <rect id="사각형_175" data-name="사각형 175" width="56.542" height="2.037" transform="translate(308.418 366.448)" fill="#535461"/>
    <path id="패스_396" data-name="패스 396" d="M305.473,370.362s-6.531-16.64-28.732-31.487S254.8,315.224,254.8,315.224s-4.173-31.143-9.659-39.841-8.621-21.248-8.621-21.248-.229.305-.6.763a5.485,5.485,0,0,0-.076-.671c-.557-4.608-1.991-13.252-4.372-10.582,0,0-.542.443-1.45,1.144l-.374-.481c-2.19-2.831-5.76-7.546-5.76-8.339,0-1.152-27.29-22.125-34.218-25.353-4.883-2.289-15.373-8.156-21.111-11.444a13.3,13.3,0,0,0-8.865-1.526c-8.392,1.457-24.414,5.234-22.263,12.451,2.869,9.728,13.969,7.042,21.545,1.526,0,0,6.668-2.556,14.236,5s38.666,29.823,38.666,29.823l2.586,7.172.244.687a6.8,6.8,0,0,1-2.831.465c-2.35-.3-1.389,2.007.328,4.578.236.351.488.71.763,1.061-.313-.122-.618-.237-.938-.381,0,0,.183.351.5.977l-.5-.206s12.016,23.041,12.795,27.4a35.81,35.81,0,0,1,.557,5.768c0,2.007-.29,3.571-.816,3.96-1.045.763-4.181,8.705-4.181,8.705l-12.276.526h0c-.366-.038-.763-.076-1.1-.13l-.763-.114v-.29a22.255,22.255,0,0,0-4.967-14.016h.184c2.594-5.646-2.991-11.536-4.2-17.639a37.454,37.454,0,0,1-.381-6,23.071,23.071,0,0,0-.206-2.4c-1.259-8.43-9.27-14.053-17.075-17.258-4.578-1.9-9.918-3.311-14.45-1.282-5.295,2.35-7.851,8.537-12.627,11.826-7.629,5.257-18.013,1.633-27.123,3.189-3.532.6-7.111,2.167-9.155,5.15-1.8,2.609-2.213,5.943-2.289,9.117-.221,8.446,1.472,17.075-.763,25.177-3.624,13.245-16.266,21.362-25.719,31.22a76.166,76.166,0,0,0-14.5,21.492c-1.35,3.014-2.4,6.866-.221,9.354,1.244,1.4,3.212,1.9,4.509,3.235,1.656,1.7,1.877,4.364,1.572,6.729-1.137,8.8-7.744,15.625-12.97,22.766s-9.2,16.953-4.776,24.6c3.815,6.584,12.161,8.553,19.592,9.918,2.365.427,4.875.847,7.118,0,2.022-.763,3.525-2.518,4.852-4.265a60.021,60.021,0,0,0,7.568-13.077c.961-2.289,1.915-4.8,4.028-6.1,1.869-1.121,4.2-.977,6.386-.8l16.312,1.343a9.255,9.255,0,0,0,4.12-.282,7.759,7.759,0,0,0,3.571-3.479,31.4,31.4,0,0,0,2.914-6.928c1.961-6.348,3.052-13.153,7.629-17.7,4.135-4.051,10.254-5.264,16.022-5.341,3.525,0,7.042.32,10.559.465.984.046,1.984.076,2.968.076.664,0,1.327,0,1.991-.038,1.3,9.048,2.914,22.446,1.656,26.154a29.391,29.391,0,0,0-1.831,9.476l.9.443c-.084.206-.168.42-.252.648-.946,2.556-1.61,6.317,1.312,8.705a11.227,11.227,0,0,0,1.526,1.022l-.221.641c-2.846,8.255-9.377,27.565-9.987,32.7-.763,6.592-10.185,26.634-10.185,26.634s-25.6,21.05-2.548,28.671a46.935,46.935,0,0,1,7.057-14.13,38.91,38.91,0,0,0,6.485-12.268,19.936,19.936,0,0,1,2.686-5.417c2.052-2.914,6.393-11.864,10.452-20.6l3.25.694c-1.633,7.057-2.068,19.226,4,38.582l.336,1.976a2.023,2.023,0,0,0-.42-.229c-2.9-1.2-7.446,2.93-10.162,9.232-2.48,5.76-2.579,11.337-.343,13.161a2.594,2.594,0,0,0,.679.42,3.334,3.334,0,0,0,2.48-.076.651.651,0,0,0,.107-.046A7.366,7.366,0,0,0,185.485,521c2.182-.542,4.41-1.587,6.653-1.472a7.966,7.966,0,0,1,1.747.29c.153,2.289.229,4.509.168,6.4-.3,10.086-.481,14.5-.481,14.5s-1.48,7.484-2.655,9.308-2.441,40.436,2.449,58.953c0,0,3.334,17.952,1.862,21.019v.061a16.638,16.638,0,0,0-1.091,5.058,43.825,43.825,0,0,0-.145,4.486l-7.057,21.6s-.191.381-.442,1.007a11.566,11.566,0,0,0-.839,5.8,5.814,5.814,0,0,0,1.038,2.533h0s-1,9.506,9.728,9.338,12.6-7.355,12.6-7.355l-.763-3.365a2.816,2.816,0,0,0,.13-.832s-.076-1.182-.16-2.96c-.191-4.677-.412-13.458.656-15.472,1.465-2.785.58-14.687.58-14.687l-.389-3.242-.4-3.387-.572-4.8s-.168-20.447,1.625-23.422c1.663-2.754,7.065-27.847,5.463-44.663a20.142,20.142,0,0,1,.969-8.156c1.6-4.944,3.815-13.176,3.2-19-.061-.557-.1-1.274-.114-2.136a14.5,14.5,0,0,0,11.2,6.592h.366a14.236,14.236,0,0,0,9.2-2.823c5.486-4.059,11.444-10.826,14.755-22a80.114,80.114,0,0,1,3.258-9.155c3.052-6.981,8.27-20.1,9.4-29.488l.328.32s7.324-21.79,7.118-30.3a7.423,7.423,0,0,0-.458-3.3l-.084-.671a.528.528,0,0,1,.084-.1s-2.892-22.812-3.914-42.267l9.4-7.011s-4.44-9.155-1.572-10.872,7.057,9.079,7.057,9.079S313.316,385.979,305.473,370.362ZM200.6,395.577l5.959-5.989c.572,3.288-.816,7.233-6.1,11.749l-.183.061C200.6,398.118,200.6,395.577,200.6,395.577Zm-7.133-65.834s-.687.526-1.8,1.419c-.191-1.083-.389-2.174-.6-3.258.336.206.664.412.977.641A12.5,12.5,0,0,1,193.465,329.743Zm30.09,140.915.763-6.34,1.671,1.091a80.665,80.665,0,0,0-3.372,13.55c.4-4.051.71-7.08.839-8.392Zm-1.526,20.287a9.156,9.156,0,0,1-.435,3.517h-.412c.259-2.953.519-5.837.763-8.53a49.518,49.518,0,0,0,.107,5.013Z" transform="translate(-50.056 -79.971)" fill="url(#linear-gradient)"/>
    <path id="패스_397" data-name="패스 397" d="M219.47,607.449v8.392c3.349,1.244,6.867-1.648,10.437-1.465,2.083.1,3.975,1.259,6.035,1.61a1.969,1.969,0,0,0,1.526-.221,2.221,2.221,0,0,0,.626-1.442c.763-4.463,1.6-15.259-5.341-16.022C227.626,597.714,225.665,606.854,219.47,607.449Z" transform="translate(-88.054 -174.991)" fill="#ffb9b9"/>
    <path id="패스_398" data-name="패스 398" d="M219.47,607.449v8.392c3.349,1.244,6.867-1.648,10.437-1.465,2.083.1,3.975,1.259,6.035,1.61a1.969,1.969,0,0,0,1.526-.221,2.221,2.221,0,0,0,.626-1.442c.763-4.463,1.6-15.259-5.341-16.022C227.626,597.714,225.665,606.854,219.47,607.449Z" transform="translate(-88.054 -174.991)" opacity="0.1"/>
    <path id="패스_399" data-name="패스 399" d="M228.285,606.528c-1.946,4.578-4.852,8.034-7.378,9.056a.641.641,0,0,1-.107.046,3.2,3.2,0,0,1-2.411.069,2.289,2.289,0,0,1-.664-.412c-2.174-1.816-2.083-7.355.336-13.077,2.64-6.256,7.072-10.361,9.918-9.155S230.932,600.272,228.285,606.528Z" transform="translate(-87.271 -173.704)" fill="#4c4c78"/>
    <path id="패스_400" data-name="패스 400" d="M226.3,813.114l-.145,2s-.938,9.384,9.491,9.254,12.268-7.309,12.268-7.309l-1.076-4.768Z" transform="translate(-89.633 -225.726)" fill="#4c4c78"/>
    <path id="패스_401" data-name="패스 401" d="M261.722,548.845s-5.051,49.492-4.1,58.266c.626,5.783-1.526,13.962-3.12,18.875a20.385,20.385,0,0,0-.938,8.095c1.526,16.708-3.7,41.634-5.341,44.365-1.747,2.96-1.587,23.27-1.587,23.27l.557,4.768.4,3.365.374,3.22s.862,11.826-.565,14.587c-1.038,2.007-.824,10.727-.633,15.373.076,1.762.153,2.937.153,2.937a3.418,3.418,0,0,1-.87,2.228c-1.289,1.587-4.486,3.388-12.383,3.113-6.31-.221-8.392-2.853-8.881-5.63a11.7,11.7,0,0,1,.816-5.76c.244-.626.435-1,.435-1l6.866-21.462a43.222,43.222,0,0,1,.145-4.456,16.638,16.638,0,0,1,1.06-5.02v-.061c1.434-3.052-1.816-20.882-1.816-20.882-4.761-18.41-3.525-56.748-2.38-58.563s2.647-9.209,2.647-9.209.183-4.387.473-14.4-2.96-28.412-2.96-28.412C219.3,541.353,229.6,530,229.6,530l32.135,7.538Z" transform="translate(-89.298 -158.806)" fill="#ffb9b9"/>
    <path id="패스_402" data-name="패스 402" d="M250.212,764.675c-3.494,1.16-10.681,3.365-14.542,3.151a16.64,16.64,0,0,1,1.06-5.02c3.151.633,8.492,1.1,13.084-1.526Z" transform="translate(-91.895 -213.633)" fill="#4c4c78"/>
    <path id="패스_403" data-name="패스 403" d="M246.081,813.3c-4.746-2.487-13.687-6.027-21.263-2.518a11.7,11.7,0,0,1,.816-5.76c4.4-.588,13.733-1.137,21.164,3.113.076,1.762.153,2.937.153,2.937A3.418,3.418,0,0,1,246.081,813.3Z" transform="translate(-89.305 -223.909)" fill="#4c4c78"/>
    <path id="패스_404" data-name="패스 404" d="M220.233,488.12V507.7s-14.618,34.02-18.913,40.245a19.836,19.836,0,0,0-2.617,5.379,38.842,38.842,0,0,1-6.317,12.207,46.725,46.725,0,0,0-6.866,14.031c-22.438-7.568,2.48-28.481,2.48-28.481s9.155-19.905,9.918-26.451c.6-5.1,6.95-24.284,9.72-32.486.763-2.289,1.282-3.754,1.282-3.754Z" transform="translate(-77.785 -148.878)" fill="#ffb9b9"/>
    <path id="패스_405" data-name="패스 405" d="M271.675,587.7s-7.851-5.341-10.9,9.155,8.652,18.311,8.652,18.311Z" transform="translate(-97.725 -172.257)" fill="none"/>
    <path id="패스_406" data-name="패스 406" d="M271.675,587.7s-7.851-5.341-10.9,9.155,8.652,18.311,8.652,18.311Z" transform="translate(-97.725 -172.257)" opacity="0.05"/>
    <path id="패스_407" data-name="패스 407" d="M275.983,540.014s-7.278,15.945-6.2,31.532a9.026,9.026,0,0,1-.687,4.211,54.854,54.854,0,0,0-4.128,24.147v.458a13.931,13.931,0,0,0,22.263,10.185c5.341-4.036,11.146-10.758,14.366-21.851a82.744,82.744,0,0,1,3.174-9.094c3.815-8.919,11.162-27.931,8.957-36.156C310.826,532.545,275.983,540.014,275.983,540.014Z" transform="translate(-98.821 -160.588)" fill="#ffb9b9"/>
    <path id="패스_408" data-name="패스 408" d="M317.319,543.442c-1.274-4.768-8.614-6.027-16.48-5.943,7.271.092,13.733,1.526,14.954,5.943,2.2,8.225-5.165,27.237-8.957,36.156a80.208,80.208,0,0,0-3.174,9.094c-3.227,11.093-9.026,17.822-14.366,21.851a13.731,13.731,0,0,1-7.576,2.792,13.679,13.679,0,0,0,9.1-2.792c5.341-4.028,11.139-10.757,14.366-21.851a80.208,80.208,0,0,1,3.174-9.094C312.154,570.687,319.516,551.667,317.319,543.442Z" transform="translate(-102.811 -160.583)" opacity="0.1"/>
    <path id="패스_409" data-name="패스 409" d="M225.216,508.08s-5.63,22.125-6.866,23.46c0,0,36.621,7.34,41.863,12.871l.763-6.294,2.579,1.717s21.172-15.068,39.673,3.815c0,0,9.056-27.466,6.485-32.616s-33.478-.664-33.478-.664Z" transform="translate(-87.789 -153.61)" opacity="0.1"/>
    <path id="패스_410" data-name="패스 410" d="M225.216,507.08s-5.63,22.125-6.866,23.46c0,0,36.621,7.339,41.863,12.871l.763-6.294,2.579,1.717s21.172-15.068,39.673,3.815c0,0,9.056-27.466,6.485-32.616s-33.478-.664-33.478-.664Z" transform="translate(-87.789 -153.373)" fill="#4c4c78"/>
    <path id="패스_411" data-name="패스 411" d="M187.452,317.761a16.631,16.631,0,0,0,.069,3.449c.252,2.289.6,4.578.992,6.866.114.671.236,1.335.359,2,1.205,6.546,2.762,13.039,3.815,19.615a95.373,95.373,0,0,1,1.114,10.162,55.993,55.993,0,0,1-1.625,17.944,36,36,0,0,1-3.967,9.262,11.727,11.727,0,0,1-2.747,3.3,7.554,7.554,0,0,1-.763.481,12.337,12.337,0,0,1-5.112,1.389c-1.213.114-2.426.153-3.647.153-.961,0-1.93,0-2.892-.076-3.426-.145-6.866-.488-10.277-.465-5.608.046-11.566,1.251-15.595,5.28-4.517,4.517-5.547,11.276-7.454,17.548a31.942,31.942,0,0,1-2.838,6.866,7.629,7.629,0,0,1-3.479,3.456,8.775,8.775,0,0,1-4.013.282l-15.915-1.335c-2.121-.175-4.395-.32-6.218.8-2.052,1.259-2.983,3.761-3.922,6.027a59.786,59.786,0,0,1-7.37,12.97,11.8,11.8,0,0,1-4.723,4.234c-2.182.862-4.623.45-6.928,0-7.233-1.343-15.35-3.3-19.074-9.834-4.311-7.629-.4-17.342,4.646-24.414S81.4,399.922,82.51,391.171c.3-2.35.084-5-1.526-6.683-1.266-1.327-3.181-1.831-4.387-3.212-2.121-2.449-1.106-6.3.214-9.293A75.752,75.752,0,0,1,90.933,350.62c9.209-9.781,21.515-17.853,25.04-31.006,2.159-8.08.511-16.655.725-25.04.076-3.159.481-6.47,2.235-9.064,2.007-2.96,5.486-4.517,8.926-5.112,8.865-1.526,18.959,2.052,26.405-3.166,4.646-3.265,7.141-9.415,12.291-11.749,4.433-2.014,9.583-.61,14.069,1.274,7.629,3.181,15.4,8.766,16.625,17.143a22.585,22.585,0,0,1,.2,2.38,37.927,37.927,0,0,0,.374,5.966c1.183,6.058,6.615,11.909,4.089,17.548C194.143,310.757,188.078,310.78,187.452,317.761Z" transform="translate(-51.055 -95.867)" fill="#b96b6b"/>
    <path id="패스_412" data-name="패스 412" d="M211.6,396.73c-2.754,4.15-5.089,8.6-7.446,13.039a12.336,12.336,0,0,1-5.112,1.389c-1.213.114-2.426.153-3.647.153-.961,0-1.93,0-2.892-.076-3.426-.145-6.866-.488-10.277-.465-5.608.046-11.566,1.251-15.594,5.28-4.517,4.517-5.547,11.276-7.454,17.548h-.824c-3.967,0-7.454-2.51-10.5-5.043a7.507,7.507,0,0,1-1.991-2.174,5.745,5.745,0,0,1-.473-3.265c.443-4.417,3.456-8.08,6.165-11.589a129.407,129.407,0,0,0,8.141-11.856c1.144-1.869,2.289-3.937,2.083-6.1-.153-1.755-1.137-3.319-1.526-5.028-1.045-4.395,1.915-8.774,5.394-11.65s7.629-4.974,10.551-8.43,4.318-8.232,4.646-12.848c.236-3.242.137-6.866,2.342-9.254,3.25-3.532,8.278-1.343,12.314-1.007,4.211.359,8.339.916,12.466,1.625.114.671.236,1.335.359,2,1.205,6.546,2.762,13.039,3.815,19.615a95.37,95.37,0,0,1,1.114,10.162A55.992,55.992,0,0,1,211.6,396.73Z" transform="translate(-70.478 -114.8)" opacity="0.1"/>
    <path id="패스_413" data-name="패스 413" d="M254.634,248.656l-15.259,10.429-1.167-3.3-2.518-7.126s-30.266-22.125-37.644-29.625-13.855-4.959-13.855-4.959c-7.378,5.47-18.189,8.141-20.981-1.526-2.083-7.172,13.5-10.918,21.675-12.367a12.718,12.718,0,0,1,8.629,1.526c5.585,3.25,15.8,9.1,20.554,11.353,6.744,3.174,33.318,24.033,33.318,25.177,0,.763,3.471,5.478,5.608,8.286C253.948,247.778,254.634,248.656,254.634,248.656Z" transform="translate(-74.673 -80.572)" fill="#ffb9b9"/>
    <path id="패스_414" data-name="패스 414" d="M322.1,385.12l6.866,54.421,10.681-8.133s-4.326-9.155-1.526-10.8,6.866,9.018,6.866,9.018,27.214,1.526,19.585-13.985l-8.652-11.192-17.036-12.093Z" transform="translate(-112.384 -124.461)" fill="#757a9b"/>
    <path id="패스_415" data-name="패스 415" d="M322.1,385.12l6.866,54.421,10.681-8.133s-4.326-9.155-1.526-10.8,6.866,9.018,6.866,9.018,27.214,1.526,19.585-13.985l-8.652-11.192-17.036-12.093Z" transform="translate(-112.384 -124.461)" opacity="0.1"/>
    <path id="패스_416" data-name="패스 416" d="M272.585,368.537,269.282,396l-22.034,1.785s-23.506-6.706-14.839-23.148c3.937-7.477,1.465-11.955-2.106-14.58a22.034,22.034,0,0,0-8.7-3.471s-.641-41.962,6.729-27.725c3.311,6.4,10.063,8.949,16.495,9.819a52.716,52.716,0,0,0,15.3-.4Z" transform="translate(-88.557 -110.426)" fill="#ffb9b9"/>
    <path id="패스_417" data-name="패스 417" d="M244.835,339.042A22.467,22.467,0,0,1,230.3,360.059a22.035,22.035,0,0,0-8.7-3.47s-.641-41.962,6.729-27.725c3.311,6.4,10.063,8.949,16.495,9.819A3.071,3.071,0,0,1,244.835,339.042Z" transform="translate(-88.555 -110.426)" opacity="0.1"/>
    <circle id="타원_83" data-name="타원 83" cx="22.469" cy="22.469" r="22.469" transform="translate(110.58 205.384)" fill="#ffb9b9"/>
    <path id="패스_418" data-name="패스 418" d="M278,263.116l-15.259,10.429-1.167-3.3c4.539-1.488,11.536-6.714,14.786-9.262C277.309,262.239,278,263.116,278,263.116Z" transform="translate(-98.034 -95.032)" opacity="0.1"/>
    <path id="패스_419" data-name="패스 419" d="M281.5,273.188l-.641,2.922-17.8,5.722a65.568,65.568,0,0,1-4.89-6.271c-1.671-2.541-2.609-4.829-.32-4.532,4.959.633,19.074-11.063,19.074-11.063,2.358-2.647,3.738,5.943,4.3,10.529C281.407,272.081,281.5,273.188,281.5,273.188Z" transform="translate(-96.829 -94.674)" fill="#cbcdda"/>
    <path id="패스_420" data-name="패스 420" d="M230.016,488.12V495.1c-1.526,0-8.27-.343-12.6-2.975.763-2.289,1.282-3.754,1.282-3.754Z" transform="translate(-87.568 -148.878)" opacity="0.1"/>
    <path id="패스_421" data-name="패스 421" d="M232.3,478.447l-.969,4.318-2.007,8.774s-9.537,0-14.175-3.876c-2.846-2.373-2.2-6.1-1.282-8.644a15.98,15.98,0,0,1,1.282-2.739Z" transform="translate(-86.54 -146.071)" fill="#cbcdda"/>
    <path id="패스_422" data-name="패스 422" d="M232.543,478.447l-.969,4.318c-4.509,2.38-14.824-2.441-17.464-3.746a15.972,15.972,0,0,1,1.282-2.739Z" transform="translate(-86.784 -146.071)" opacity="0.1"/>
    <path id="패스_423" data-name="패스 423" d="M214.181,408.62,211.77,417.9s4.829,28.862,2.922,34.584a29.625,29.625,0,0,0-1.778,9.407s13.985,7.378,18.692,3.693,4.7-19.295,4.7-19.295l9.918-10.17-12.589-18.181Z" transform="translate(-86.229 -130.032)" fill="#757a9b"/>
    <path id="패스_424" data-name="패스 424" d="M265.688,361S277.7,401.245,238.6,391.9l11.314,44.441L227.35,478.3s72.289,12.207,84.5-3.624c0,0-5.913-47.684-3.624-63.706s-7.248-41.016-12.4-42.633S265.688,361,265.688,361Z" transform="translate(-89.922 -118.743)" opacity="0.1"/>
    <path id="패스_425" data-name="패스 425" d="M265.688,363S277.7,403.245,238.6,393.9l11.314,44.441L227.35,480.3s72.289,12.207,84.5-3.624c0,0-5.913-47.684-3.624-63.706s-7.248-41.016-12.4-42.633S265.688,363,265.688,363Z" transform="translate(-89.922 -119.217)" opacity="0.1"/>
    <path id="패스_426" data-name="패스 426" d="M265.688,362S277.7,402.245,238.6,392.9l11.314,44.441L227.35,479.3s72.289,12.207,84.5-3.624c0,0-5.913-47.684-3.624-63.706s-7.248-41.016-12.4-42.633S265.688,362,265.688,362Z" transform="translate(-89.922 -118.98)" fill="#cbcdda"/>
    <path id="패스_427" data-name="패스 427" d="M272.122,281.435c-2.289,1.068-7.431,2.472-14.877-.8,0,0,11.7,22.888,12.466,27.214s.763,9.666-.259,10.429-4.066,8.644-4.066,8.644l-11.955.526s7.629,3.052,7.629,8.881,16.785,16.785,25.688,21.111,45.265,17.067,45.265,17.067l16.281,15.739s-6.363-16.533-27.977-31.281-21.362-23.521-21.362-23.521-4.066-30.9-9.407-39.551-8.392-21.1-8.392-21.1-4.273,5.89-6.813,6.05A6.27,6.27,0,0,0,272.122,281.435Z" transform="translate(-96.105 -98.306)" opacity="0.1"/>
    <path id="패스_428" data-name="패스 428" d="M282.021,276.613l-.641,2.922-17.8,5.722a65.564,65.564,0,0,1-4.89-6.271c7.347,3.166,12.39,1.778,14.679.717a6.1,6.1,0,0,1,2.22-.6c1.93-.122,4.852-3.54,6.149-5.188C281.929,275.507,282.021,276.613,282.021,276.613Z" transform="translate(-97.352 -98.1)" opacity="0.1"/>
    <path id="패스_429" data-name="패스 429" d="M272.122,280.435c-2.289,1.068-7.431,2.472-14.877-.8,0,0,11.7,22.888,12.466,27.214s.763,9.666-.259,10.429-4.066,8.644-4.066,8.644l-11.955.526s7.629,3.052,7.629,8.881,16.785,16.785,25.688,21.111,45.265,17.067,45.265,17.067l16.281,15.739s-6.363-16.533-27.977-31.281-21.362-23.521-21.362-23.521-4.066-30.9-9.407-39.551-8.392-21.1-8.392-21.1-4.273,5.89-6.813,6.05A6.271,6.271,0,0,0,272.122,280.435Z" transform="translate(-96.105 -98.069)" fill="#757a9b"/>
    <path id="패스_430" data-name="패스 430" d="M193.681,348.283c.763-2.4.305-5.02.626-7.523.855-6.783,7.24-12.245,6.943-19.074a3.052,3.052,0,0,1,.267-1.877,2.449,2.449,0,0,1,1.656-.816c3.326-.6,7.149-.282,9.621-2.586s2.411-6.477,2.037-9.987c-.206-1.884-.5-3.96-1.945-5.2a7.5,7.5,0,0,0-3.334-1.366q-6.241-1.419-12.55-2.48c-4.242-.717-8.705-1.289-12.741.2s-7.172,4.982-10.048,8.316c-2.708,3.136-5.6,6.9-4.837,10.986.42,2.213,1.862,4.066,2.823,6.1a14.786,14.786,0,0,1-.763,13.809c-2,3.235-5.341,5.791-6.149,9.5a9.073,9.073,0,0,0,3.96,9.193C175.31,359.475,191.293,355.859,193.681,348.283Z" transform="translate(-75.167 -103.486)" opacity="0.1"/>
    <path id="패스_431" data-name="패스 431" d="M192.681,348.283c.763-2.4.305-5.02.626-7.523.855-6.783,7.24-12.245,6.943-19.074a3.052,3.052,0,0,1,.267-1.877,2.449,2.449,0,0,1,1.656-.816c3.326-.6,7.149-.282,9.621-2.586s2.411-6.477,2.037-9.987c-.206-1.884-.5-3.96-1.946-5.2a7.5,7.5,0,0,0-3.334-1.366q-6.241-1.419-12.55-2.48c-4.242-.717-8.705-1.289-12.741.2s-7.172,4.982-10.048,8.316c-2.708,3.136-5.6,6.9-4.837,10.986.42,2.213,1.862,4.066,2.823,6.1a14.786,14.786,0,0,1-.763,13.809c-2,3.235-5.341,5.791-6.149,9.5a9.073,9.073,0,0,0,3.96,9.193C174.31,359.475,190.293,355.859,192.681,348.283Z" transform="translate(-74.93 -103.486)" fill="#b96b6b"/>
    <path id="패스_432" data-name="패스 432" d="M229.741,372.23s-18.868,14.923-19.5,19.882,2.029,16.655,2.029,16.655l18.822,11.826s21.744,8.522,5.47,22.758-22,44.762-22,44.762,7.889,9.407,22.636-17.639c0,0,14.244-15.511,14.877-23.14s2.853-31.029-6.775-45.525c-6.355-9.567-9.811-20.309-12.3-25.871A6.973,6.973,0,0,0,229.741,372.23Z" transform="translate(-85.843 -121.405)" opacity="0.1"/>
    <path id="패스_433" data-name="패스 433" d="M228.74,372.23s-18.867,14.923-19.5,19.882,2.029,16.655,2.029,16.655l18.822,11.826s21.744,8.522,5.47,22.758-22,44.762-22,44.762,7.889,9.407,22.636-17.639c0,0,14.244-15.511,14.877-23.14s2.853-31.029-6.775-45.525c-6.355-9.567-9.811-20.309-12.3-25.871A6.973,6.973,0,0,0,228.74,372.23Z" transform="translate(-85.606 -121.405)" fill="#757a9b"/>
    <path id="패스_434" data-name="패스 434" d="M239.2,465.45s-16.556,5.188-14.542,21.362" transform="translate(-89.244 -143.504)" opacity="0.1"/>
    <path id="패스_435" data-name="패스 435" d="M200.548,392.65l-3.838,16.663,7.248-7.431Z" transform="translate(-46.633 -93.081)" opacity="0.1"/>
    <path id="패스_436" data-name="패스 436" d="M225.464,502.99l-4.944,3.746,4.181,2.548Z" transform="translate(-52.277 -119.238)" opacity="0.1"/>
    <path id="패스_437" data-name="패스 437" d="M310.6,434.3s17.014.549,17.357-5.852" transform="translate(-109.657 -134.733)" opacity="0.1"/>
    <path id="패스_438" data-name="패스 438" d="M87.715,772.33s4.2,5.486-1.93,13.733-11.177,15.259-9.155,20.416c0,0,9.239-15.366,16.785-15.579S95.993,781.577,87.715,772.33Z" transform="translate(-54.085 -216.253)" fill="#6c63ff"/>
    <path id="패스_439" data-name="패스 439" d="M87.792,772.33a6.9,6.9,0,0,1,.862,1.717c7.34,8.629,11.246,16.678,4.189,16.876-6.569.229-14.435,11.94-16.342,14.908a5.343,5.343,0,0,0,.229.671s9.239-15.366,16.785-15.579S96.069,781.577,87.792,772.33Z" transform="translate(-54.162 -216.253)" opacity="0.1"/>
    <path id="패스_440" data-name="패스 440" d="M101.219,781.106c0,1.93-.221,3.494-.488,3.494s-.481-1.564-.481-3.494.267-1.022.534-1.022S101.219,779.206,101.219,781.106Z" transform="translate(-59.792 -218.04)" fill="#ffd037"/>
    <path id="패스_441" data-name="패스 441" d="M103.973,784.1c-1.694.923-3.174,1.48-3.3,1.244s1.137-1.175,2.831-2.1,1.03-.252,1.16,0S105.682,783.175,103.973,784.1Z" transform="translate(-59.891 -218.728)" fill="#ffd037"/>
    <path id="패스_442" data-name="패스 442" d="M59.364,772.33s-4.2,5.486,1.93,13.733,11.177,15.259,9.155,20.416c0,0-9.247-15.366-16.785-15.579S51.087,781.577,59.364,772.33Z" transform="translate(-47.868 -216.253)" fill="#6c63ff"/>
    <path id="패스_443" data-name="패스 443" d="M59.367,772.33a6.9,6.9,0,0,0-.862,1.717c-7.339,8.629-11.246,16.678-4.189,16.876,6.569.191,14.45,11.94,16.342,14.908a6.9,6.9,0,0,1-.221.671s-9.247-15.35-16.769-15.579S51.089,781.577,59.367,772.33Z" transform="translate(-47.87 -216.253)" opacity="0.1"/>
    <path id="패스_444" data-name="패스 444" d="M52.07,781.106c0,1.93.221,3.494.488,3.494s.481-1.564.481-3.494-.267-1.022-.534-1.022S52.07,779.206,52.07,781.106Z" transform="translate(-48.371 -218.04)" fill="#ffd037"/>
    <path id="패스_445" data-name="패스 445" d="M48.249,784.1c1.694.923,3.174,1.48,3.3,1.244s-1.137-1.175-2.831-2.1-1.03-.252-1.16,0S46.555,783.175,48.249,784.1Z" transform="translate(-47.22 -218.728)" fill="#ffd037"/>
    <path id="패스_446" data-name="패스 446" d="M53.82,814.214s11.719-.359,15.259-2.869,18.028-5.524,18.906-1.488,17.609,20.058,4.379,20.165-30.777-2.06-34.271-4.2S53.82,814.214,53.82,814.214Z" transform="translate(-48.785 -224.682)" fill="#a8a8a8"/>
    <path id="패스_447" data-name="패스 447" d="M92.593,830.58c-13.229.107-30.739-2.06-34.264-4.2-2.686-1.64-3.754-7.507-4.112-10.216h-.4s.763,9.453,4.272,11.6,21.042,4.3,34.264,4.219c3.815,0,5.135-1.389,5.066-3.4C96.888,829.771,95.431,830.534,92.593,830.58Z" transform="translate(-48.785 -226.643)" opacity="0.2"/>
    <rect id="사각형_176" data-name="사각형 176" width="201.882" height="201.882" rx="18.95" transform="translate(300.888 97.695)" fill="#eaeaf3"/>
    <rect id="사각형_177" data-name="사각형 177" width="99.327" height="99.327" rx="18.95" transform="translate(330.513 132.638)" fill="#166dd3" opacity="0.1"/>
    <rect id="사각형_178" data-name="사각형 178" width="99.327" height="99.327" rx="18.95" transform="translate(373.802 165.291)" fill="#166dd3" opacity="0.1"/>
  </g>
</svg>
